<svg xmlns="http://www.w3.org/2000/svg" xmlns:xlink="http://www.w3.org/1999/xlink" width="1210" height="939" viewBox="0 0 1210 939">
  <defs>
    <clipPath id="clip-path">
      <rect id="Rectangle_5056" data-name="Rectangle 5056" width="1210" height="939" transform="translate(710)" fill="#1bc5bd"/>
    </clipPath>
  </defs>
  <g id="Group_2407" data-name="Group 2407" transform="translate(-710)">
    <g id="Mask_Group_3" data-name="Mask Group 3" clip-path="url(#clip-path)">
      <rect id="Rectangle_4953" data-name="Rectangle 4953" width="1210" height="939" transform="translate(710)" fill="#1bc5bd"/>
      <g id="Group_2406" data-name="Group 2406">
        <path id="path1538" d="M563.193-149.546V-181.19a5.03,5.03,0,0,0-5.994-4.95L264.515-129.847V-150.69l116.13-22.318a5.062,5.062,0,0,0,3.905-6.3L362.234-260.5a5.019,5.019,0,0,0-5.812-3.6l-91.907,17.713v-20.843l106.617-20.558a5.048,5.048,0,0,1,5.81,3.621l27.964,101.749a5.05,5.05,0,0,0,5.807,3.621l54.741-10.537a5.039,5.039,0,0,0,4.091-4.95V-313.807a5.023,5.023,0,0,0-4.13-4.95L399.5-330.909a5.2,5.2,0,0,0-1.7-.023l-133.29,20.968v-20.7l133.556-21.008a4.7,4.7,0,0,1,1.7.02l63.823,11.742a5.028,5.028,0,0,0,5.951-4.952v-26.552L490-367.525v167.35a5.066,5.066,0,0,0,6.016,4.973L559.1-207.353a5.023,5.023,0,0,0,4.089-4.95V-364.927l20.456-4.032v150.784a5.057,5.057,0,0,0,6.014,4.948l42.528-8.182a5.036,5.036,0,0,0,4.091-4.95V-330.745a5.018,5.018,0,0,1,4.032-4.93l39.685-8.2v20.886l-19.229,3.968a5.055,5.055,0,0,0-4.032,4.95v81.843a5.044,5.044,0,0,0,6,4.952L680-230.592v20.822l-92.259,17.737a5.063,5.063,0,0,0-4.091,4.971v142.7a5.055,5.055,0,0,0,5.891,4.973L680-54.425v20.745l-92.116,15.3a5.075,5.075,0,0,0-4.234,4.993V56.651l-20.456,4.032V-118.553a5.03,5.03,0,0,0-5.889-4.971L481.43-110.453a5.067,5.067,0,0,0-3.619,2.639L398.687,43.276l-24.652,2.964L404.27-11.506a5.044,5.044,0,0,0-5.235-7.323L264.515,1.647V-19.036L418.141-42.418a5.072,5.072,0,0,0,3.723-2.657l42.528-81.192a5,5,0,0,1,3.6-2.616l91.03-15.69a5.046,5.046,0,0,0,4.173-4.973" transform="translate(445 719.811)" fill="#1fb7af" opacity="0.41"/>
        <path id="path1538-2" data-name="path1538" d="M563.193-161.184v31.644a5.03,5.03,0,0,1-5.994,4.95L264.515-180.883v20.843l116.129,22.318a5.062,5.062,0,0,1,3.905,6.3L362.234-50.232a5.019,5.019,0,0,1-5.812,3.6L264.515-64.344V-43.5L371.133-22.943a5.048,5.048,0,0,0,5.81-3.621l27.964-101.749a5.05,5.05,0,0,1,5.807-3.621L465.454-121.4a5.039,5.039,0,0,1,4.091,4.95V3.077a5.023,5.023,0,0,1-4.13,4.95L399.5,20.179a5.2,5.2,0,0,1-1.7.023L264.515-.767v20.7L398.071,40.942a4.7,4.7,0,0,0,1.7-.02l63.823-11.742a5.028,5.028,0,0,1,5.951,4.952V60.684L490,56.8v-167.35a5.066,5.066,0,0,1,6.016-4.973L559.1-103.377a5.023,5.023,0,0,1,4.089,4.95V54.2l20.456,4.032V-92.555a5.057,5.057,0,0,1,6.014-4.948l42.528,8.182a5.036,5.036,0,0,1,4.091,4.95V20.015a5.018,5.018,0,0,0,4.032,4.93L680,33.148V12.262L660.771,8.294a5.055,5.055,0,0,1-4.032-4.95V-78.5a5.044,5.044,0,0,1,6-4.952L680-80.138v-20.822L587.741-118.7a5.063,5.063,0,0,1-4.091-4.971v-142.7a5.055,5.055,0,0,1,5.891-4.973L680-256.3V-277.05l-92.116-15.3a5.075,5.075,0,0,1-4.234-4.993v-70.039l-20.456-4.032v179.237a5.03,5.03,0,0,1-5.889,4.971L481.43-200.278a5.067,5.067,0,0,1-3.619-2.639l-79.124-151.09-24.652-2.964,30.234,57.746a5.044,5.044,0,0,1-5.235,7.323L264.515-312.378v20.684l153.626,23.381a5.072,5.072,0,0,1,3.723,2.657l42.528,81.193a5,5,0,0,0,3.6,2.616l91.03,15.69a5.046,5.046,0,0,1,4.173,4.973" transform="translate(445 296.811)" fill="#1fb7af" opacity="0.41"/>
        <path id="path1538-3" data-name="path1538" d="M563.193-161.184v31.644a5.03,5.03,0,0,1-5.994,4.95L264.515-180.883v20.843l116.129,22.318a5.062,5.062,0,0,1,3.905,6.3L362.234-50.232a5.019,5.019,0,0,1-5.812,3.6L264.515-64.344V-43.5L371.133-22.943a5.048,5.048,0,0,0,5.81-3.621l27.964-101.749a5.05,5.05,0,0,1,5.807-3.621L465.454-121.4a5.039,5.039,0,0,1,4.091,4.95V3.077a5.023,5.023,0,0,1-4.13,4.95L399.5,20.179a5.2,5.2,0,0,1-1.7.023L264.515-.767v20.7L398.071,40.942a4.7,4.7,0,0,0,1.7-.02l63.823-11.742a5.028,5.028,0,0,1,5.951,4.952V60.684L490,56.8v-167.35a5.066,5.066,0,0,1,6.016-4.973L559.1-103.377a5.023,5.023,0,0,1,4.089,4.95V54.2l20.456,4.032V-92.555a5.057,5.057,0,0,1,6.014-4.948l42.528,8.182a5.036,5.036,0,0,1,4.091,4.95V20.015a5.018,5.018,0,0,0,4.032,4.93L680,33.148V12.262L660.771,8.294a5.055,5.055,0,0,1-4.032-4.95V-78.5a5.044,5.044,0,0,1,6-4.952L680-80.138v-20.822L587.741-118.7a5.063,5.063,0,0,1-4.091-4.971v-142.7a5.055,5.055,0,0,1,5.891-4.973L680-256.3V-277.05l-92.116-15.3a5.075,5.075,0,0,1-4.234-4.993v-70.039l-20.456-4.032v179.237a5.03,5.03,0,0,1-5.889,4.971L481.43-200.278a5.067,5.067,0,0,1-3.619-2.639l-79.124-151.09-24.652-2.964,30.234,57.746a5.044,5.044,0,0,1-5.235,7.323L264.515-312.378v20.684l153.626,23.381a5.072,5.072,0,0,1,3.723,2.657l42.528,81.193a5,5,0,0,0,3.6,2.616l91.03,15.69a5.046,5.046,0,0,1,4.173,4.973" transform="translate(1240 231.811)" fill="#1fb7af" opacity="0.41"/>
        <path id="path1538-4" data-name="path1538" d="M563.193-161.184v31.644a5.03,5.03,0,0,1-5.994,4.95L264.515-180.883v20.843l116.129,22.318a5.062,5.062,0,0,1,3.905,6.3L362.234-50.232a5.019,5.019,0,0,1-5.812,3.6L264.515-64.344V-43.5L371.133-22.943a5.048,5.048,0,0,0,5.81-3.621l27.964-101.749a5.05,5.05,0,0,1,5.807-3.621L465.454-121.4a5.039,5.039,0,0,1,4.091,4.95V3.077a5.023,5.023,0,0,1-4.13,4.95L399.5,20.179a5.2,5.2,0,0,1-1.7.023L264.515-.767v20.7L398.071,40.942a4.7,4.7,0,0,0,1.7-.02l63.823-11.742a5.028,5.028,0,0,1,5.951,4.952V60.684L490,56.8v-167.35a5.066,5.066,0,0,1,6.016-4.973L559.1-103.377a5.023,5.023,0,0,1,4.089,4.95V54.2l20.456,4.032V-92.555a5.057,5.057,0,0,1,6.014-4.948l42.528,8.182a5.036,5.036,0,0,1,4.091,4.95V20.015a5.018,5.018,0,0,0,4.032,4.93L680,33.148V12.262L660.771,8.294a5.055,5.055,0,0,1-4.032-4.95V-78.5a5.044,5.044,0,0,1,6-4.952L680-80.138v-20.822L587.741-118.7a5.063,5.063,0,0,1-4.091-4.971v-142.7a5.055,5.055,0,0,1,5.891-4.973L680-256.3V-277.05l-92.116-15.3a5.075,5.075,0,0,1-4.234-4.993v-70.039l-20.456-4.032v179.237a5.03,5.03,0,0,1-5.889,4.971L481.43-200.278a5.067,5.067,0,0,1-3.619-2.639l-79.124-151.09-24.652-2.964,30.234,57.746a5.044,5.044,0,0,1-5.235,7.323L264.515-312.378v20.684l153.626,23.381a5.072,5.072,0,0,1,3.723,2.657l42.528,81.193a5,5,0,0,0,3.6,2.616l91.03,15.69a5.046,5.046,0,0,1,4.173,4.973" transform="translate(847 197.811)" fill="#1fb7af" opacity="0.41"/>
        <path id="path1538-5" data-name="path1538" d="M563.193-149.546V-181.19a5.03,5.03,0,0,0-5.994-4.95L264.515-129.847V-150.69l116.13-22.318a5.062,5.062,0,0,0,3.905-6.3L362.234-260.5a5.019,5.019,0,0,0-5.812-3.6l-91.907,17.713v-20.843l106.617-20.558a5.048,5.048,0,0,1,5.81,3.621l27.964,101.749a5.05,5.05,0,0,0,5.807,3.621l54.741-10.537a5.039,5.039,0,0,0,4.091-4.95V-313.807a5.023,5.023,0,0,0-4.13-4.95L399.5-330.909a5.2,5.2,0,0,0-1.7-.023l-133.29,20.968v-20.7l133.556-21.008a4.7,4.7,0,0,1,1.7.02l63.823,11.742a5.028,5.028,0,0,0,5.951-4.952v-26.552L490-367.525v167.35a5.066,5.066,0,0,0,6.016,4.973L559.1-207.353a5.023,5.023,0,0,0,4.089-4.95V-364.927l20.456-4.032v150.784a5.057,5.057,0,0,0,6.014,4.948l42.528-8.182a5.036,5.036,0,0,0,4.091-4.95V-330.745a5.018,5.018,0,0,1,4.032-4.93l39.685-8.2v20.886l-19.229,3.968a5.055,5.055,0,0,0-4.032,4.95v81.843a5.044,5.044,0,0,0,6,4.952L680-230.592v20.822l-92.259,17.737a5.063,5.063,0,0,0-4.091,4.971v142.7a5.055,5.055,0,0,0,5.891,4.973L680-54.425v20.745l-92.116,15.3a5.075,5.075,0,0,0-4.234,4.993V56.651l-20.456,4.032V-118.553a5.03,5.03,0,0,0-5.889-4.971L481.43-110.453a5.067,5.067,0,0,0-3.619,2.639L398.687,43.276l-24.652,2.964L404.27-11.506a5.044,5.044,0,0,0-5.235-7.323L264.515,1.647V-19.036L418.141-42.418a5.072,5.072,0,0,0,3.723-2.657l42.528-81.192a5,5,0,0,1,3.6-2.616l91.03-15.69a5.046,5.046,0,0,0,4.173-4.973" transform="translate(1240 650.811)" fill="#1fb7af" opacity="0.41"/>
        <path id="path1538-6" data-name="path1538" d="M563.193-161.184v31.644a5.03,5.03,0,0,1-5.994,4.95L264.515-180.883v20.843l116.129,22.318a5.062,5.062,0,0,1,3.905,6.3L362.234-50.232a5.019,5.019,0,0,1-5.812,3.6L264.515-64.344V-43.5L371.133-22.943a5.048,5.048,0,0,0,5.81-3.621l27.964-101.749a5.05,5.05,0,0,1,5.807-3.621L465.454-121.4a5.039,5.039,0,0,1,4.091,4.95V3.077a5.023,5.023,0,0,1-4.13,4.95L399.5,20.179a5.2,5.2,0,0,1-1.7.023L264.515-.767v20.7L398.071,40.942a4.7,4.7,0,0,0,1.7-.02l63.823-11.742a5.028,5.028,0,0,1,5.951,4.952V60.684L490,56.8v-167.35a5.066,5.066,0,0,1,6.016-4.973L559.1-103.377a5.023,5.023,0,0,1,4.089,4.95V54.2l20.456,4.032V-92.555a5.057,5.057,0,0,1,6.014-4.948l42.528,8.182a5.036,5.036,0,0,1,4.091,4.95V20.015a5.018,5.018,0,0,0,4.032,4.93L680,33.148V12.262L660.771,8.294a5.055,5.055,0,0,1-4.032-4.95V-78.5a5.044,5.044,0,0,1,6-4.952L680-80.138v-20.822L587.741-118.7a5.063,5.063,0,0,1-4.091-4.971v-142.7a5.055,5.055,0,0,1,5.891-4.973L680-256.3V-277.05l-92.116-15.3a5.075,5.075,0,0,1-4.234-4.993v-70.039l-20.456-4.032v179.237a5.03,5.03,0,0,1-5.889,4.971L481.43-200.278a5.067,5.067,0,0,1-3.619-2.639l-79.124-151.09-24.652-2.964,30.234,57.746a5.044,5.044,0,0,1-5.235,7.323L264.515-312.378v20.684l153.626,23.381a5.072,5.072,0,0,1,3.723,2.657l42.528,81.193a5,5,0,0,0,3.6,2.616l91.03,15.69a5.046,5.046,0,0,1,4.173,4.973" transform="translate(825 878.811)" fill="#1fb7af" opacity="0.41"/>
        <path id="Path_1167" data-name="Path 1167" d="M-11425.891,16642.566l123.94-19.3,87.368,13.207v-207.244l-87.368-20.318-23.365,99.559" transform="translate(12140 -16255)" fill="none" stroke="#fff" strokeWidth="4" opacity="0.22"/>
      </g>
    </g>
  </g>
</svg>
