<svg xmlns="http://www.w3.org/2000/svg" width="22.708" height="9.526" viewBox="0 0 22.708 9.526">
  <path id="arrows-horizontal" d="M22.112,21.978l-2.657-3.117a.917.917,0,0,0-1.311-.106.948.948,0,0,0-.106,1.311l1.878,2.267H2.522L4.4,20.065a.881.881,0,0,0-.106-1.311.881.881,0,0,0-1.311.106L.325,21.978a2.126,2.126,0,0,0,0,2.551l2.657,3.117a.666.666,0,0,0,.673.39,1.337,1.337,0,0,0,.567-.177.917.917,0,0,0,.106-1.311L2.451,24.281H19.845l-1.878,2.267a.881.881,0,0,0,.106,1.311.724.724,0,0,0,.567.177.838.838,0,0,0,.744-.39l2.657-3.117A1.793,1.793,0,0,0,22.112,21.978Z" transform="translate(0.1 -18.51)" fill="#fff"/>
</svg>
